<svg width="100" height="100" viewBox="0 0 100 100" fill="none" xmlns="http://www.w3.org/2000/svg">
<path d="M90.3595 64.2463C90.3595 85.9707 76.9909 95.504 66.6605 98.7184C64.4577 99.4041 63.0096 96.8357 64.3275 94.9423C68.823 88.4814 74.0196 78.6249 74.0196 69.3526C74.0196 59.3924 65.6245 47.6333 59.0691 40.3804C57.5705 38.7225 54.9566 39.8198 54.8749 42.0532C54.6037 49.4532 53.436 59.3536 48.4007 67.113C47.5904 68.362 45.8701 68.4651 44.9464 67.2973C43.3732 65.3079 41.7999 62.8498 40.2267 60.9079C39.3791 59.8622 37.8474 59.8479 36.8699 60.7731C33.0589 64.3817 27.7233 70.0092 27.7233 77.0119C27.7233 82.0634 30.1307 88.3507 32.6122 93.2195C33.7391 95.4305 31.6485 98.0239 29.5007 96.7806C20.1265 91.3542 8.66013 80.1108 8.66013 64.2463C8.66013 48.1802 30.6694 25.9234 39.073 4.89658C40.3988 1.57856 44.4858 0.0194829 47.3279 2.18472C64.542 15.2978 90.3595 40.646 90.3595 64.2463Z" stroke="#675100"/>
</svg>
