<svg width="100" height="100" viewBox="0 0 100 100" fill="none" xmlns="http://www.w3.org/2000/svg">
<path d="M48.561 59.2468C57.0712 59.2468 63.97 51.854 63.97 42.7346C63.97 33.6152 57.0712 26.2224 48.561 26.2224C40.0509 26.2224 33.152 33.6152 33.152 42.7346C33.152 51.854 40.0509 59.2468 48.561 59.2468Z" stroke="#675100" stroke-linejoin="round"/>
<path d="M86.678 38.3893C86.8264 28.7088 83.3801 19.3615 77.0972 12.4039C70.8143 5.4462 62.2094 1.44809 53.1756 1.28905C44.1418 1.13001 35.4191 4.82308 28.9262 11.5558C22.4334 18.2886 18.7024 27.5094 18.554 37.19C18.554 37.3175 18.554 37.4391 18.554 37.555C18.5206 44.4161 17.4244 51.2236 15.31 57.6999C12.4536 64.9142 12.3886 73.049 15.1293 80.3147C17.87 87.5804 23.1919 93.3818 29.9242 96.4427C36.6566 99.5036 44.2479 99.5732 51.0281 96.6363C57.8084 93.6994 63.2222 87.9965 66.0786 80.7822C68.8201 74.5708 72.491 68.8815 76.946 63.9398C83.1972 57.1243 86.6933 47.9456 86.678 38.3893Z" stroke="#675100" stroke-linejoin="round"/>
</svg>
