<svg width="100" height="100" viewBox="0 0 100 100" fill="none" xmlns="http://www.w3.org/2000/svg">
<path d="M99.0969 22.4587H69.5403" stroke="#675100" stroke-miterlimit="10" stroke-linecap="round" stroke-linejoin="round"/>
<path d="M20.2792 22.4587H0.574738" stroke="#675100" stroke-miterlimit="10" stroke-linecap="round" stroke-linejoin="round"/>
<path d="M39.9836 39.7C49.5058 39.7 57.225 31.9808 57.225 22.4587C57.225 12.9365 49.5058 5.21729 39.9836 5.21729C30.4615 5.21729 22.7422 12.9365 22.7422 22.4587C22.7422 31.9808 30.4615 39.7 39.9836 39.7Z" stroke="#675100" stroke-miterlimit="10" stroke-linecap="round" stroke-linejoin="round"/>
<path d="M99.0969 76.6459H79.3925" stroke="#675100" stroke-miterlimit="10" stroke-linecap="round" stroke-linejoin="round"/>
<path d="M30.1314 76.6459H0.574738" stroke="#675100" stroke-miterlimit="10" stroke-linecap="round" stroke-linejoin="round"/>
<path d="M59.688 93.8872C69.2102 93.8872 76.9294 86.168 76.9294 76.6459C76.9294 67.1237 69.2102 59.4045 59.688 59.4045C50.1659 59.4045 42.4467 67.1237 42.4467 76.6459C42.4467 86.168 50.1659 93.8872 59.688 93.8872Z" stroke="#675100" stroke-miterlimit="10" stroke-linecap="round" stroke-linejoin="round"/>
</svg>
